<svg width="2000" height="2000" viewBox="0 0 2000 2000" fill="none" xmlns="http://www.w3.org/2000/svg">
<path d="M1787.5 125H712.499C689.292 125 667.037 134.219 650.627 150.628C634.218 167.038 624.999 189.293 624.999 212.5V312.5L1230.62 499.999L1875 312.5V212.5C1875 189.293 1865.78 167.038 1849.37 150.628C1832.96 134.219 1810.7 125 1787.5 125V125Z" fill="#0364B8"/>
<path d="M1978.12 1087.81C1987.27 1059.04 1994.58 1029.71 2000 1000C1999.99 992.7 1998.07 985.53 1994.42 979.21C1990.76 972.89 1985.51 967.644 1979.18 964V964L1978.37 963.563L1300.75 577.501C1297.83 575.591 1294.81 573.859 1291.69 572.313C1278.75 565.859 1264.49 562.499 1250.03 562.499C1235.57 562.499 1221.31 565.859 1208.37 572.313C1205.25 573.859 1202.22 575.591 1199.31 577.501L521.874 963.375L521.124 963.813C514.717 967.438 509.387 972.697 505.676 979.054C501.965 985.411 500.006 992.639 499.999 1000C505.415 1029.71 512.721 1059.04 521.874 1087.81L1240.12 1613.19L1978.12 1087.81Z" fill="#0A2767"/>
<path d="M1500 312.5H1062.5L936.187 499.999L1062.5 687.499L1500 1062.5H1875V687.499L1500 312.5Z" fill="#28A8EA"/>
<path d="M1062.5 312.5H624.999V687.499H1062.5V312.5Z" fill="#0078D4"/>
<path d="M1875 312.5H1500V687.499H1875V312.5Z" fill="#50D9FF"/>
<path d="M1500 1062.5L1062.5 687.499H624.999V1062.5L1062.5 1437.5L1739.5 1548L1500 1062.5Z" fill="#0364B8"/>
<path d="M1500 687.499H1062.5V1062.5H1500V687.499Z" fill="#0078D4"/>
<path d="M1062.5 1062.5H624.999V1437.5H1062.5V1062.5Z" fill="#064A8C"/>
<path d="M1875 1062.5H1500V1437.5H1875V1062.5Z" fill="#0078D4"/>
<path opacity="0.5" d="M1261.93 1576.12L524.993 1038.56L556.243 984.25C556.243 984.25 1227.3 1366.75 1237.49 1372.5C1241.69 1374.18 1246.18 1374.98 1250.7 1374.85C1255.21 1374.72 1259.65 1373.67 1263.74 1371.75L1947.05 982.375L1978.3 1036.69L1261.93 1576.12Z" fill="#0A2767"/>
<path d="M1979.19 1036.06L1978.31 1036.56L1300.75 1422.56C1287.29 1431.22 1271.84 1436.29 1255.87 1437.28C1239.89 1438.28 1223.93 1435.17 1209.5 1428.25L1445.38 1744.56L1961.25 1857.06C1973.26 1848.4 1983.03 1837.01 1989.77 1823.83C1996.51 1810.65 2000.01 1796.05 2000 1781.25V999.999C2000 1007.31 1998.08 1014.49 1994.43 1020.82C1990.77 1027.15 1985.52 1032.41 1979.19 1036.06V1036.06Z" fill="#1490DF"/>
<path opacity="0.05" d="M2000 1781.25V1735.12L1376.06 1379.62L1300.75 1422.56C1287.29 1431.22 1271.84 1436.28 1255.87 1437.28C1239.89 1438.28 1223.93 1435.17 1209.5 1428.25L1445.38 1744.56L1961.25 1857.06C1973.26 1848.4 1983.03 1837.01 1989.77 1823.83C1996.51 1810.64 2000.01 1796.05 2000 1781.25Z" fill="black"/>
<path opacity="0.1" d="M1996.88 1805.18L1312.95 1415.62L1300.45 1422.55C1286.99 1431.21 1271.53 1436.28 1255.56 1437.28C1239.59 1438.27 1223.63 1435.16 1209.2 1428.24L1445.07 1744.55L1960.95 1857.05C1978.56 1844.43 1991.26 1826.1 1996.88 1805.18Z" fill="black"/>
<path d="M521.875 1036.87V1036.25H521.25L519.375 1035C513.405 1031.33 508.484 1026.18 505.089 1020.04C501.695 1013.91 499.942 1007.01 500 999.999V1781.25C500 1806.11 509.878 1829.96 527.459 1847.54C545.041 1865.12 568.886 1875 593.75 1875H1906.25C1914.06 1874.92 1921.83 1873.87 1929.37 1871.87C1933.29 1871.19 1937.08 1869.93 1940.62 1868.12C1941.95 1867.99 1943.23 1867.57 1944.37 1866.87C1949.49 1864.78 1954.32 1862.05 1958.75 1858.75C1960 1858.12 1960.62 1858.12 1961.25 1856.87L521.875 1036.87Z" fill="#28A8EA"/>
<path opacity="0.1" d="M1125 1541.69V520.812C1124.93 498.736 1116.13 477.584 1100.52 461.974C1084.91 446.364 1063.76 437.565 1041.69 437.5H626.936V687.499V903.499L521.874 963.374L521.124 963.811C514.717 967.436 509.387 972.696 505.676 979.053C501.965 985.41 500.006 992.638 499.999 999.999V1625H1041.69C1063.76 1624.93 1084.91 1616.13 1100.52 1600.52C1116.13 1584.91 1124.93 1563.76 1125 1541.69V1541.69Z" fill="black"/>
<path opacity="0.2" d="M1062.5 1604.19V583.312C1062.43 561.236 1053.63 540.084 1038.02 524.474C1022.41 508.864 1001.26 500.065 979.186 500H626.936V687.499V903.499L521.874 963.374L521.124 963.811C514.717 967.437 509.387 972.696 505.676 979.053C501.965 985.41 500.006 992.638 499.999 999.999V1687.5H979.186C1001.26 1687.43 1022.41 1678.63 1038.02 1663.02C1053.63 1647.41 1062.43 1626.26 1062.5 1604.19V1604.19Z" fill="black"/>
<path opacity="0.2" d="M1062.5 1479.19V583.312C1062.43 561.236 1053.63 540.084 1038.02 524.474C1022.41 508.864 1001.26 500.065 979.186 500H626.936V687.499V903.499L521.874 963.374L521.124 963.811C514.717 967.437 509.387 972.696 505.676 979.053C501.965 985.41 500.006 992.638 499.999 999.999V1562.5H979.186C1001.26 1562.43 1022.41 1553.63 1038.02 1538.02C1053.63 1522.41 1062.43 1501.26 1062.5 1479.19V1479.19Z" fill="black"/>
<path opacity="0.2" d="M999.998 1479.19V583.312C999.932 561.236 991.133 540.084 975.524 524.474C959.914 508.864 938.761 500.065 916.686 500H626.936V687.499V903.499L521.874 963.374L521.124 963.811C514.717 967.437 509.387 972.696 505.676 979.053C501.965 985.41 500.006 992.638 499.999 999.999V1562.5H916.686C938.761 1562.43 959.914 1553.63 975.524 1538.02C991.133 1522.41 999.932 1501.26 999.998 1479.19V1479.19Z" fill="black"/>
<path d="M916.686 500H83.3124C37.3002 500 0 537.3 0 583.312V1416.69C0 1462.7 37.3002 1500 83.3124 1500H916.686C962.698 1500 999.998 1462.7 999.998 1416.69V583.312C999.998 537.3 962.698 500 916.686 500Z" fill="#0078D4"/>
<path d="M219.888 828.432C243.928 777.267 282.713 734.456 331.263 705.495C384.992 674.717 446.181 659.382 508.075 661.183C565.414 659.93 621.995 674.459 671.637 703.183C718.352 731.013 755.98 771.811 779.949 820.62C806.036 874.408 819.035 933.601 817.887 993.37C819.163 1055.84 805.785 1117.75 778.824 1174.12C754.32 1224.64 715.558 1266.88 667.325 1295.62C615.76 1325.28 557.044 1340.22 497.575 1338.81C438.988 1340.2 381.141 1325.5 330.325 1296.31C283.244 1268.42 245.17 1227.59 220.638 1178.68C194.397 1125.67 181.238 1067.14 182.263 1007.99C181.091 946.068 193.954 884.679 219.888 828.432V828.432ZM338.638 1116.99C351.445 1149.3 373.108 1177.33 401.137 1197.87C429.765 1217.87 464.04 1228.18 498.95 1227.31C536.113 1228.75 572.741 1218.09 603.325 1196.93C631.115 1176.39 652.261 1148.14 664.137 1115.68C677.425 1079.68 683.992 1041.55 683.512 1003.18C683.947 964.34 677.776 925.706 665.262 888.932C654.223 855.835 633.84 826.639 606.575 804.87C576.783 782.614 540.229 771.312 503.075 772.87C467.443 771.956 432.436 782.349 403.075 802.557C374.477 823.033 352.283 851.209 339.075 883.807C309.978 958.742 309.822 1041.83 338.638 1116.87V1116.99Z" fill="white"/>
</svg>
